<?xml version="1.0" encoding="utf-8"?>
<svg version="1.1" height="25px" width="25px" id="Layer_1" xmlns="http://www.w3.org/2000/svg" xmlns:xlink="http://www.w3.org/1999/xlink" x="0px" y="0px"
	 viewBox="0 0 24 24" style="enable-background:new 0 0 24 24;" xml:space="preserve">
<path style="fill:#B7B9C2" d="M20.7,19.3L16.5,15c1-1.3,1.5-2.8,1.5-4.5C18,6.4,14.6,3,10.5,3S3,6.4,3,10.5S6.4,18,10.5,18c1.7,0,3.3-0.6,4.5-1.5l4.3,4.3
	c0.2,0.2,0.5,0.3,0.7,0.3s0.5-0.1,0.7-0.3C21.1,20.3,21.1,19.7,20.7,19.3z M5,10.5C5,7.5,7.5,5,10.5,5c3,0,5.5,2.5,5.5,5.5
	c0,3-2.5,5.5-5.5,5.5C7.5,16,5,13.5,5,10.5z"/>
</svg>
